<?xml version="1.0" standalone="no"?>
<!DOCTYPE svg PUBLIC "-//W3C//DTD SVG 20010904//EN"
 "http://www.w3.org/TR/2001/REC-SVG-20010904/DTD/svg10.dtd">
<svg version="1.0" xmlns="http://www.w3.org/2000/svg"
 width="1200.000000pt" height="630.000000pt" viewBox="0 0 1200.000000 630.000000"
 preserveAspectRatio="xMidYMid meet">

<g transform="translate(0.000000,630.000000) scale(0.100000,-0.100000)"
fill="#000000" stroke="none">
<path d="M5660 6278 c-185 -17 -458 -76 -645 -140 -481 -163 -890 -418 -1241
-773 -511 -518 -814 -1158 -895 -1895 -16 -153 -14 -499 5 -660 130 -1095 788
-2015 1779 -2490 289 -138 564 -220 927 -277 165 -26 663 -26 835 0 882 132
1620 578 2134 1290 88 123 222 349 216 365 -2 7 -1 11 4 8 7 -5 27 34 80 148
2 5 -1 6 -8 2 -6 -4 -11 -1 -11 6 -1 8 -6 6 -15 -6 -8 -11 -15 -16 -15 -10 1
13 30 50 30 38 0 -6 6 -11 14 -11 8 0 12 6 9 12 -5 16 -46 14 -56 -3 -10 -15
-167 -17 -167 -2 0 6 -33 10 -80 10 -72 0 -80 2 -80 19 0 16 -11 20 -76 26
-59 5 -79 4 -85 -7 -6 -9 -9 -2 -10 22 -1 34 -1 35 -8 6 -5 -26 -7 -27 -20
-13 -7 9 -11 24 -7 32 3 8 1 15 -4 15 -6 0 -10 -9 -10 -19 0 -11 -4 -22 -9
-26 -5 -3 -10 -18 -10 -33 -2 -87 -6 -91 -181 -175 -281 -135 -596 -220 -970
-261 -134 -15 -306 -23 -315 -15 -2 3 2 44 10 93 31 191 72 596 91 897 l6 105
-41 19 c-40 18 -53 39 -29 47 17 6 -6 29 -50 52 -19 10 -29 22 -26 30 4 9 -11
19 -46 32 -46 17 -51 21 -57 56 -5 34 -7 37 -18 21 -7 -10 -13 -54 -14 -98 -6
-296 -55 -802 -109 -1140 l-17 -110 -110 2 c-201 5 -556 59 -840 128 -240 59
-518 152 -740 248 -142 62 -136 38 -75 267 127 477 311 956 562 1463 59 119
109 217 111 217 3 0 31 -12 63 -26 123 -55 373 -136 547 -178 33 -8 38 17 8
36 -15 9 -17 15 -9 25 8 10 7 13 -4 13 -8 0 -23 24 -35 58 -11 31 -25 57 -32
57 -12 0 -31 23 -31 38 0 4 7 7 15 7 11 0 10 7 -7 36 -18 30 -19 37 -7 46 10
7 8 8 -8 3 -15 -4 -23 -2 -23 6 0 8 -4 8 -15 -1 -13 -11 -14 -10 -9 4 6 15
-14 22 -53 17 -7 -1 -13 3 -13 9 0 5 -3 9 -7 8 -5 -1 -24 5 -43 13 -19 9 -72
31 -117 49 l-83 34 32 55 c17 31 41 74 52 96 12 22 23 42 26 45 15 14 79 119
86 143 4 9 10 17 15 17 5 0 5 7 2 17 -4 11 -3 14 5 9 8 -5 10 -1 5 10 -4 11
-3 15 5 10 6 -3 13 -3 16 2 2 4 -6 8 -19 8 -16 0 -21 -4 -17 -15 3 -9 1 -12
-6 -7 -7 4 -12 29 -12 57 0 43 -2 49 -21 49 -20 0 -21 3 -14 80 7 80 5 86 -27
81 -4 0 -5 6 -1 15 4 12 8 13 13 3 5 -8 8 -3 9 12 2 53 8 79 24 97 9 10 17 22
17 26 0 15 -51 -54 -164 -224 -64 -96 -125 -188 -135 -205 -10 -16 -46 -77
-81 -135 -35 -58 -64 -106 -66 -108 -3 -5 -40 15 -104 56 -221 144 -434 353
-535 525 -33 58 -44 46 140 145 212 114 456 217 693 292 89 28 129 46 120 51
-7 5 -8 9 -2 9 5 0 16 -6 23 -12 11 -11 12 -10 6 1 -6 11 -3 13 16 8 l24 -6 0
130 c0 109 2 129 15 128 32 -3 44 3 20 10 -14 4 -24 13 -22 20 1 8 -7 9 -25 5
-297 -67 -634 -192 -938 -347 -211 -108 -199 -110 -185 31 14 138 73 260 185
380 72 78 87 86 211 112 186 39 480 37 684 -5 36 -7 73 -13 84 -13 17 1 17 2
2 14 -15 10 -14 12 8 18 22 5 24 12 31 85 6 72 9 80 31 85 24 6 24 36 -1 36
-7 0 -19 7 -26 17 -13 15 -12 15 8 5 30 -17 42 -14 19 3 -11 8 -28 15 -37 15
-10 0 -20 4 -23 8 -4 7 20 12 70 15 7 0 9 10 5 26 -5 18 -1 35 16 60 13 18 23
41 23 50 0 9 9 31 20 49 20 32 20 32 0 32 -18 0 -19 2 -8 20 7 11 21 23 30 26
63 20 -32 26 -182 12z m45 -338 c3 -5 1 -10 -4 -10 -6 0 -11 5 -11 10 0 6 2
10 4 10 3 0 8 -4 11 -10z m45 -20 c0 -5 -4 -10 -10 -10 -5 0 -10 5 -10 10 0 6
5 10 10 10 6 0 10 -4 10 -10z m-1519 -582 c-25 -110 -23 -273 5 -382 5 -20
-10 -34 -103 -103 -319 -237 -603 -531 -795 -821 -37 -57 -68 -99 -68 -93 0 5
12 47 26 93 123 389 362 789 653 1091 104 108 281 270 288 263 2 -2 -1 -23 -6
-48z m1418 -592 c-31 -45 -36 -39 -8 8 12 20 24 35 27 32 3 -3 -6 -21 -19 -40z
m-1260 -154 c123 -206 370 -443 630 -605 53 -33 97 -61 99 -62 1 -1 -54 -116
-122 -256 -268 -548 -452 -1038 -596 -1587 l-11 -42 -32 16 c-59 31 -311 200
-404 272 -293 228 -534 520 -653 791 l-32 74 43 131 c154 467 499 916 999
1298 19 15 37 27 40 27 3 0 20 -25 39 -57z m1211 42 c0 -8 -19 -13 -24 -6 -3
5 1 9 9 9 8 0 15 -2 15 -3z m97 -201 c1 -22 -1 -24 -8 -10 -6 9 -7 22 -4 27 9
14 10 13 12 -17z m16 -41 c-3 -12 -9 -22 -14 -22 -5 0 -3 11 3 25 13 30 20 28
11 -3z m276 -791 c-6 -2 -18 4 -27 13 -15 15 -15 15 10 4 15 -7 23 -15 17 -17z
m-2664 -1071 c84 -107 281 -300 410 -404 120 -96 371 -265 505 -341 47 -26 86
-48 86 -49 1 0 -7 -50 -17 -111 -30 -180 -44 -452 -32 -601 5 -71 9 -130 8
-132 -1 -1 -45 34 -99 79 -412 344 -722 799 -884 1299 -42 129 -66 231 -76
335 l-7 60 23 -30 c13 -16 50 -64 83 -105z m1445 -998 c457 -187 1036 -321
1548 -358 l94 -7 -7 -36 c-13 -67 -93 -335 -130 -431 -73 -192 -155 -330 -219
-369 -26 -16 -50 -21 -107 -21 -174 0 -442 37 -649 90 -247 62 -533 180 -602
247 -87 85 -130 259 -130 523 0 219 23 436 45 426 7 -3 77 -32 157 -64z m3340
-104 c-1 -24 -109 -220 -166 -299 -115 -160 -245 -274 -463 -406 -270 -165
-597 -293 -911 -356 -69 -14 -126 -24 -128 -22 -2 1 10 29 26 61 77 153 158
388 213 616 l34 136 115 7 c371 20 706 75 975 161 114 37 268 95 280 105 13
13 25 11 25 -3z"/>
<path d="M5837 6253 c-14 -13 -7 -23 16 -22 21 0 21 1 2 8 l-20 8 20 5 c13 4
15 6 4 7 -9 0 -19 -2 -22 -6z"/>
<path d="M5768 6053 c7 -3 16 -2 19 1 4 3 -2 6 -13 5 -11 0 -14 -3 -6 -6z"/>
<path d="M5708 5723 c7 -3 16 -2 19 1 4 3 -2 6 -13 5 -11 0 -14 -3 -6 -6z"/>
<path d="M5928 3863 c7 -3 16 -2 19 1 4 3 -2 6 -13 5 -11 0 -14 -3 -6 -6z"/>
</g>
</svg>
